HIERARCHY
ROOT Hips
{
  OFFSET -35.2597 29.1586 114.425
  CHANNELS 6 Xposition Yposition Zposition Zrotation Xrotation Yrotation
  JOINT LeftUpLeg
  {
    OFFSET 8.64259 1.95398 -2.38835
    CHANNELS 3 Zrotation Xrotation Yrotation
    JOINT LeftLeg
    {
      OFFSET 43.7702 0 0
      CHANNELS 3 Zrotation Xrotation Yrotation
      JOINT LeftFoot
      {
        OFFSET 40.6238 0 0
        CHANNELS 3 Zrotation Xrotation Yrotation
        JOINT LeftToeBase
        {
          OFFSET 12.7242 0 0
          CHANNELS 3 Zrotation Xrotation Yrotation
          End Site
          {
            OFFSET 0 0 0
          }
        }
      }
    }
  }
  JOINT RightUpLeg
  {
    OFFSET -8.2249 1.95398 -2.59336
    CHANNELS 3 Zrotation Xrotation Yrotation
    JOINT RightLeg
    {
      OFFSET 43.5653 0 0
      CHANNELS 3 Zrotation Xrotation Yrotation
      JOINT RightFoot
      {
        OFFSET 40.6238 0 0
        CHANNELS 3 Zrotation Xrotation Yrotation
        JOINT RightToeBase
        {
          OFFSET 12.7242 0 0
          CHANNELS 3 Zrotation Xrotation Yrotation
          End Site
          {
            OFFSET 0 0 0
          }
        }
      }
    }
  }
  JOINT Spine
  {
    OFFSET 0.165834 0.87714 6.61349
    CHANNELS 3 Zrotation Xrotation Yrotation
    JOINT Spine1
    {
      OFFSET 7.38963 1.71661e-005 0
      CHANNELS 3 Zrotation Xrotation Yrotation
      JOINT Spine2
      {
        OFFSET 11.9445 1.14441e-005 0
        CHANNELS 3 Zrotation Xrotation Yrotation
        JOINT Spine3
        {
          OFFSET 14.7254 4.19617e-005 0
          CHANNELS 3 Zrotation Xrotation Yrotation
          JOINT Spine4
          {
            OFFSET 10.9679 0 0
            CHANNELS 3 Zrotation Xrotation Yrotation
            JOINT RightShoulder
            {
              OFFSET 2.46616 -1.6653 3.69651
              CHANNELS 3 Zrotation Xrotation Yrotation
              JOINT RightArm
              {
                OFFSET 13.0012 0 0
                CHANNELS 3 Zrotation Xrotation Yrotation
                JOINT RightForeArm
                {
                  OFFSET 28.7848 1.62311e-005 0
                  CHANNELS 3 Zrotation Xrotation Yrotation
                  JOINT RightHand
                  {
                    OFFSET 26.5688 1.62095e-005 0
                    CHANNELS 3 Zrotation Xrotation Yrotation
                    End Site
                    {
                      OFFSET 0 0 0
                    }
                  }
                }
              }
            }
            JOINT LeftShoulder
            {
              OFFSET 2.38034 -1.29275 -3.7523
              CHANNELS 3 Zrotation Xrotation Yrotation
              JOINT LeftArm
              {
                OFFSET 16.3182 6.07031e-005 0
                CHANNELS 3 Zrotation Xrotation Yrotation
                JOINT LeftForeArm
                {
                  OFFSET 27.0901 0 0
                  CHANNELS 3 Zrotation Xrotation Yrotation
                  JOINT LeftHand
                  {
                    OFFSET 24.5451 1.51738e-005 0
                    CHANNELS 3 Zrotation Xrotation Yrotation
                    End Site
                    {
                      OFFSET 0 0 0
                    }
                  }
                }
              }
            }
            JOINT Neck
            {
              OFFSET 5.0226 -0.0266342 0
              CHANNELS 3 Zrotation Xrotation Yrotation
              JOINT Head
              {
                OFFSET 6.69364 2.86102e-005 0
                CHANNELS 3 Zrotation Xrotation Yrotation
                End Site
                {
                  OFFSET 0 0 0
                }
              }
            }
          }
        }
      }
    }
  }
}
MOTION
Frames:	6
Frame Time:	0.0416667
-66.1107 97.9091 81.7726 -102.995 -44.5231 -99.5187 -174.36 6.04799 90.2499 -29.2982 14.78 0.148373 73.9947 8.85986 -3.2049 19.6909 -8.6983 6.47212 171.277 4.70867 85.7523 -56.28 -20.1055 -2.07482 61.1622 -0.535144 -0.232064 28.9425 -0.681176 2.09407 1.11781 8.20942 -89.8382 10.4554 2.30092 0.118193 -1.21349 2.30386 0.0167572 -23.7635 2.15896 0.804568 -3.75084 2.15896 0.804573 88.5068 -34.0638 -108.077 37.0062 8.85015 -11.7875 -5.07954 -38.6286 -5.32555 -27.0177 3.285 -19.1465 -84.152 -53.4976 87.9105 -18.1118 -16.0171 12.1603 3.58445 40.309 -4.66268 7.40037 -0.5237 -9.43334 -1.98048 -5.14359 -8.72815 -1.37417 -4.00556 -6.42017 
-62.3084 97.1686 77.2829 -101.307 -44.7983 -98.8734 -176.506 11.9096 88.8183 -30.7169 13.1814 1.15681 72.793 7.79383 -4.52722 16.4362 -13.5548 10.433 175.259 -2.80936 85.2454 -51.9348 -36.4699 -8.2326 63.733 -2.5463 0.238408 32.3225 -2.04988 2.20322 1.62115 8.01134 -89.8701 10.8555 3.28789 -0.049109 -0.811244 3.28255 -0.193942 -23.3779 3.15049 0.942304 -3.36526 3.15051 0.942309 87.6322 -33.8574 -109.782 36.1334 8.78703 -14.4683 -5.2784 -41.6925 -5.43769 -24.6091 3.19598 -20.1844 -83.1781 -54.2973 89.3973 -21.1661 -15.4271 15.28 3.30856 34.8341 -4.38568 4.11664 -0.538512 -12.3118 -1.20173 -6.16251 -6.95258 -1.05445 -5.1926 -7.14828 
-57.6516 96.5186 70.4157 -98.4691 -44.8591 -97.2979 -178.254 18.7133 88.7543 -28.3621 13.4507 1.87431 64.6817 2.54313 -3.98117 17.9936 -11.3345 8.79999 179.056 -5.41596 86.1118 -44.3583 -42.3597 -13.3641 71.9763 -8.95674 -2.30624 35.0691 -3.49184 3.79319 1.9559 7.9641 -89.9711 10.9559 3.9074 -0.31254 -0.709205 3.88986 -0.484476 -23.2902 3.82041 0.878016 -3.27753 3.82041 0.878019 87.7831 -31.951 -110.284 38.5224 6.29984 -20.2329 -5.11068 -39.1249 -5.34142 -23.2522 2.92062 -19.7374 -82.4503 -57.0477 90.6596 -22.8075 -15.1032 14.9371 3.12716 30.9266 -4.19337 1.98163 -0.437052 -13.4942 1.30748 -5.86005 -1.24583 -1.10355 -5.59471 -8.81582 
-52.53 96.1307 61.9505 -96.549 -50.5823 -96.199 -178 21.5917 89.2813 -17.66 22.2249 0.319346 62.3284 1.72781 -1.47983 24.0571 -8.55611 10.7695 178.125 0.551267 89.5529 -41.2251 -37.514 -9.41902 78.1308 -13.1306 -2.39337 31.102 -1.66368 2.58033 1.79191 8.24972 -90.1501 10.3884 3.50097 -0.606396 -1.27809 3.47088 -0.760076 -23.8508 3.52115 0.475156 -3.83817 3.52115 0.47515 86.9495 -31.3939 -112.107 38.9389 4.66448 -26.3 -5.02246 -37.6838 -5.29547 -22.8731 2.97653 -20.2859 -82.1907 -57.821 91.0774 -24.401 -14.5615 10.3962 3.01717 28.1116 -4.08075 4.2049 -0.718158 -15.1298 6.68573 -4.28662 4.38711 -0.164223 -5.12777 -8.49984 
-49.1542 97.2403 54.9303 -93.1176 -62.0677 -94.3495 -175.582 21.6883 87.5961 -9.48975 -6.40539 -3.37875 63.8273 3.71559 -3.79125 24.8991 -7.89461 10.6125 175.247 4.44136 88.4278 -33.8303 -30.6281 -4.01152 77.3716 -12.6341 -3.50173 27.1419 0.163003 1.71505 1.59359 8.19959 -90.1996 10.4865 3.0827 -0.670243 -1.181 3.05022 -0.805385 -23.7455 3.14149 0.288153 -3.73286 3.14147 0.288144 86.3908 -32.743 -112.562 40.457 3.80594 -25.6875 -5.06106 -38.3327 -5.31576 -21.4283 2.71204 -19.9291 -82.4755 -55.0611 90.4715 -25.1125 -14.1724 6.6864 2.91586 25.3106 -3.9767 6.28325 -1.01111 -16.4893 10.0268 -2.46639 4.83789 -1.40281 -3.48244 -4.23609 
-46.8869 99.6279 49.7679 -89.5756 -76.9245 -93.6834 -174.183 22.6668 84.4826 -23.381 -13.2085 -4.07136 66.2782 3.4779 -1.65078 18.4941 -10.7197 8.3694 174.397 4.5638 88.0456 -24.0509 -17.0449 -2.10187 72.9868 -9.37473 -3.66352 24.2805 1.52954 1.18018 1.30276 8.03973 -89.9109 10.7989 2.63525 -0.0679415 -0.869337 2.62972 -0.183939 -23.4249 2.53375 0.727723 -3.41229 2.53376 0.727733 86.3796 -33.4589 -112.267 43.185 3.17417 -21.623 -5.52114 -45.0956 -5.58641 -17.3799 2.34685 -21.1271 -82.655 -51.726 89.9354 -25.7969 -13.8347 4.35863 2.7815 21.1874 -3.83884 12.1034 -1.75816 -17.4713 10.3514 0.481285 4.9663 -2.41862 -0.644283 -1.64159 
